<svg xmlns="http://www.w3.org/2000/svg" width="256" height="256" viewBox="0 0 256 256" version="1.1" id="Food-Delivery-Order-Manage--Streamline-Ultimate.svg">
	<path d="M125.44 19.644928C115.17559466666665 20.804266666666667 106.54873599999999 28.678485333333334 104.51387733333333 38.745429333333334L104.20411733333333 40.27733333333333 89.48650666666667 40.27733333333333C79.58237866666667 40.27733333333333 74.47296 40.33792 73.86436266666666 40.462336C72.41233066666666 40.75946666666666 70.01685333333333 42.007552 68.82833066666666 43.086165333333334C67.43466666666666 44.351146666666665 66.17514666666666 46.261077333333326 65.58412799999999 48.00597333333334L65.10933333333332 49.408 65.024 70.76352L64.93866666666666 92.11921066666666 46.29111466666667 108.621824L27.643392000000002 125.12426666666666 26.340522666666665 127.09751466666665C22.219775999999996 133.33794133333333 19.508736 140.76825599999998 18.49685333333333 148.59554133333333C18.262186666666665 150.41041066666668 18.193578666666664 153.304576 18.095104 165.54666666666665C17.968810666666666 181.2370773333333 17.98638933333333 180.90837333333332 17.132202666666664 183.548416C15.954090666666666 187.190272 14.453077333333335 189.481472 10.809856 193.19995733333332C8.416255999999999 195.64288 8.021333333333333 196.26001066666666 8.021333333333333 197.55810133333333C8.021333333333333 200.01553066666665 10.682197333333333 201.745408 12.885333333333334 200.72021333333333C13.741055999999999 200.32187733333333 18.364416 195.64543999999998 19.65056 193.87733333333333C22.453418666666664 190.02385066666668 24.039936 186.21184 24.871423999999998 181.33333333333331C25.085098666666667 180.07944533333333 25.15729066666667 177.03901866666666 25.26446933333333 164.77866666666665C25.342976 155.79562666666666 25.46773333333333 149.31421866666668 25.574912 148.65066666666667C26.350250666666664 143.84759466666665 27.672064 139.56846933333333 29.591552 135.64689066666668C30.870015999999996 133.03500799999998 32.58862933333334 130.285568 33.48241066666667 129.42250666666666C33.88740266666667 129.03150933333333 41.13066666666666 122.59720533333332 49.57866666666666 115.12388266666666L64.93866666666666 101.53608533333333 65.024 121.125376L65.10933333333332 140.71466666666666 65.50272 141.34749866666667C66.01062399999999 142.16413866666667 66.81975466666667 142.84014933333333 67.43722666666666 142.963712C67.91065599999999 143.05843199999998 68.12945066666667 143.35999999999999 67.7248 143.35999999999999C67.61437866666667 143.35999999999999 63.38167466666667 147.48808533333332 58.318506666666664 152.53333333333333C52.071935999999994 158.75805866666664 49.01051733333333 161.926144 48.79479466666666 162.38933333333333C47.56770133333333 165.023744 49.903104 167.83274666666665 52.81535999999999 167.22551466666667C53.65572266666667 167.05023999999997 53.86990933333333 166.85192533333333 62.54933333333333 158.20731733333332C71.12789333333333 149.66357333333332 72.315904 148.590592 73.95857066666666 147.90434133333332C74.849792 147.53194666666667 76.96708266666666 147.11415466666665 77.944832 147.117568C79.259648 147.12234666666666 81.05523199999999 147.57495466666666 82.432 148.24840533333332C84.09463466666666 149.06197333333333 86.22455466666666 151.14257066666667 87.000576 152.711168C88.14882133333332 155.03189333333333 88.37461333333334 158.329856 87.54909866666665 160.72072533333332C86.85858133333333 162.720768 86.055424 163.67121066666667 79.35931733333332 170.41066666666666C73.00932266666666 176.801792 72.91306666666667 176.90914133333334 72.72465066666666 177.80036266666664C72.46848 179.01175466666666 72.46370133333333 196.51157333333333 72.718848 198.79065599999998C73.220096 203.26690133333332 71.50353066666666 207.888896 68.24448 210.83801599999998C67.464192 211.54423466666668 63.129087999999996 214.19793066666668 51.598335999999996 221.02818133333332C40.27118933333333 227.73794133333334 35.86986666666667 230.43037866666668 35.504810666666664 230.87325866666666C34.388991999999995 232.22681599999999 34.55607466666667 234.41407999999998 35.868842666666666 235.639808C36.77457066666666 236.48563199999998 38.36023466666666 236.78139733333333 39.472128 236.31223466666665C39.774207999999994 236.18474666666665 47.04034133333333 231.921152 55.619242666666665 226.83784533333332C67.76951466666667 219.63810133333334 71.528448 217.33085866666667 72.62549333333334 216.39953066666664C74.865152 214.49813333333333 77.01418666666666 211.54935466666666 78.15185066666666 208.81664C79.19837866666667 206.30289066666666 79.872 203.28806400000002 79.872 201.11837866666667L79.872 200.192 128 200.192L176.128 200.192 176.12868266666663 201.17333333333332C176.1303893333333 203.54491733333333 177.13902933333333 207.52776533333332 178.34120533333333 209.9090773333333C179.79374933333332 212.78685866666666 181.83406933333333 215.27159466666666 184.265216 217.12349866666668C184.81152 217.53975466666665 192.24746666666667 222.01873066666667 200.78933333333333 227.076608C211.63963733333333 233.50135466666666 216.55295999999998 236.32145066666664 217.09312 236.434432C218.12053333333333 236.64913066666665 218.94638933333331 236.47368533333332 219.792384 235.86082133333335C221.48488533333332 234.63475200000002 221.74839466666666 232.26862933333334 220.36087466666663 230.75532800000002C219.90570666666665 230.25885866666667 215.51411199999998 227.5776853333333 204.37333333333333 220.99473066666667C193.71212799999998 214.69491200000002 188.67746133333333 211.62615466666668 187.91560533333333 210.96294400000002C184.59426133333332 208.07168000000001 182.6942293333333 203.14436266666667 183.2912213333333 198.97139199999998C183.55319466666668 197.13996799999998 183.52981333333332 179.01226666666668 183.26391466666664 177.74933333333334C183.090176 176.92433066666666 182.86967466666664 176.68010666666663 176.64068266666663 170.41066666666666C169.94457599999998 163.67121066666667 169.14141866666665 162.720768 168.45090133333335 160.72072533333332C167.62538666666666 158.329856 167.85117866666667 155.03189333333333 168.999424 152.711168C169.787904 151.11714133333334 171.94905599999998 149.00599466666665 173.58984533333333 148.22673066666667C174.97412266666666 147.56932266666666 176.774144 147.12234666666666 178.05516799999998 147.117568C179.03291733333333 147.11415466666665 181.150208 147.53194666666667 182.0414293333333 147.90434133333332C183.68085333333335 148.58939733333332 184.87569066666669 149.668352 193.45066666666665 158.20868266666668C202.13282133333334 166.85567999999998 202.34393599999999 167.051264 203.18464 167.22602666666666C206.035968 167.818752 208.35481599999997 165.14218666666667 207.26869333333332 162.51187199999998C207.08864 162.075648 204.5233493333333 159.39191466666665 199.06286933333334 153.92682666666664L191.11901866666665 145.97632000000002 191.30350933333335 144.97809066666667C191.42929066666665 144.297472 191.488 137.312768 191.488 123.019264C191.488 111.49090133333334 191.52571733333332 102.05866666666667 191.57179733333334 102.05866666666667C191.66122666666666 102.05866666666667 221.09525333333332 128.06519466666666 222.35579733333333 129.25764266666667C224.01143466666667 130.82419199999998 226.633216 135.5728213333333 228.184576 139.81508266666668C229.11249066666664 142.35272533333332 229.92691200000002 145.56450133333334 230.425088 148.65066666666667C230.5322666666667 149.31421866666668 230.657024 155.79562666666666 230.73553066666665 164.77866666666665C230.84270933333335 177.03901866666666 230.91490133333335 180.07944533333333 231.12857599999998 181.33333333333331C231.96808533333333 186.25962666666666 233.62423466666667 190.202368 236.43340800000001 193.96266666666665C237.85028266666666 195.859456 242.26577066666667 200.32529066666666 243.11466666666666 200.72021333333333C244.50508799999997 201.36721066666667 246.06532266666665 200.97177599999998 247.15776 199.69570133333335C248.0203093333333 198.68791466666664 248.22784 197.364224 247.71566933333332 196.138496C247.56531199999998 195.77856 246.48447999999996 194.52091733333333 245.190144 193.19995733333332C242.07001599999998 190.01531733333334 240.96324266666667 188.50423466666666 239.74877866666665 185.77066666666667C239.05143466666667 184.20070399999997 238.70668799999999 183.17943466666665 238.30715733333332 181.500416C238.05986133333334 180.46071466666666 238.00866133333335 178.43336533333334 237.90506666666664 165.54666666666665C237.80778666666666 153.46961066666665 237.73610666666664 150.3977813333333 237.51065599999998 148.66141866666666C236.747776 142.785024 235.09794133333332 137.23357866666666 232.66355199999998 132.352C231.49619199999998 130.011136 229.74429866666665 127.08027733333333 228.711424 125.740032C228.20966399999998 125.088768 221.352448 118.90670933333334 209.74933333333334 108.64469333333334L191.57333333333332 92.56942933333333 191.47571200000002 71.15946666666666C191.40078933333334 54.70805333333333 191.32808533333335 49.55170133333333 191.16185599999997 48.896C190.835712 47.60900266666667 189.723648 45.425152 188.87082666666666 44.39739733333334C187.28755199999998 42.48866133333333 185.28409599999998 41.19261866666667 183.023616 40.614399999999996C181.76085333333336 40.29149866666666 181.08569599999998 40.27733333333333 166.97770666666665 40.27733333333333L152.25019733333332 40.27733333333333 152.13977599999998 39.63733333333333C150.73621333333332 31.496362666666666 145.0801493333333 24.432298666666664 137.47950933333334 21.327872C133.64206933333332 19.760469333333333 129.51927466666666 19.184127999999998 125.44 19.644928M126.208 26.651306666666667C122.47313066666666 27.070805333333332 118.82888533333333 28.85154133333333 116.08029866666666 31.600298666666664C113.12110933333332 34.559488 111.48987733333333 38.11720533333333 111.09683199999999 42.46920533333333C110.99801599999999 43.56334933333333 110.87479466666667 44.61226666666666 110.82291199999999 44.8C110.61316266666667 45.558954666666665 109.84192 46.424405333333326 109.003264 46.84236799999999L108.13559466666666 47.27466666666667 91.93301333333332 47.27466666666667C79.90920533333333 47.27466666666667 75.55566933333333 47.32706133333333 75.053056 47.477589333333334C74.16081066666666 47.74485333333333 72.822272 48.966144 72.424448 49.875968C72.11793066666667 50.57706666666667 72.10359466666667 52.19925333333333 72.02133333333333 95.82933333333332C71.9744 120.704 71.943168 141.075968 71.95204266666666 141.10054399999999C71.96091733333333 141.12494933333332 72.30412799999999 141.02647466666667 72.71492266666667 140.881408C73.961984 140.44142933333333 76.2368 140.11716266666667 78.05969066666665 140.119552C81.34843733333334 140.12381866666666 84.56448 141.09627733333332 87.266304 142.90363733333334C90.83767466666666 145.29245866666665 93.22581333333333 148.51771733333334 94.49096533333334 152.66133333333332C94.93026133333332 154.1000533333333 94.95995733333332 154.397184 94.95995733333332 157.35466666666667C94.95995733333332 160.312832 94.93043199999998 160.60893866666666 94.49062399999998 162.048C93.24731733333333 166.11720533333332 92.56686933333333 167.03453866666666 85.55912533333333 174.08750933333332L79.70133333333332 179.98301866666665 79.70133333333332 186.58884266666666L79.70133333333332 193.19466666666665 128 193.19466666666665L176.29866666666666 193.19466666666665 176.29866666666666 186.58884266666666L176.29866666666666 179.98301866666665 170.44087466666667 174.08750933333332C166.416384 170.03707733333334 164.33373866666668 167.81141333333332 163.78589866666667 166.97565866666667C158.47799466666666 158.87957333333333 160.68096 148.18133333333333 168.746496 142.88520533333332C170.59003733333333 141.67483733333333 172.49826133333332 140.89301333333333 174.76266666666666 140.42077866666668C176.0889173333333 140.144128 176.80332800000002 140.09856 178.688 140.17058133333333C180.80204799999998 140.25130666666666 181.59104 140.38647466666666 183.934464 141.06897066666667L184.316928 141.180416 184.316416 95.91159466666666C184.31607466666668 50.704896 184.31556266666664 50.64174933333333 183.96757333333332 49.85480533333333C183.50557866666668 48.81015466666667 182.88196266666668 48.17152 181.84533333333331 47.68136533333333L180.992 47.278079999999996 164.77866666666665 47.27534933333334C153.79968 47.27364266666667 148.35319466666667 47.21390933333333 147.908096 47.09017599999999C147.52989866666667 46.985215999999994 146.94417066666665 46.60104533333333 146.52859733333332 46.185642666666666C145.72014933333332 45.37702399999999 145.408 44.47624533333333 145.408 42.951338666666665C145.408 41.76093866666667 145.00317866666666 39.627946666666666 144.49186133333333 38.12522666666666C142.72768 32.939519999999995 138.34120533333333 28.76381866666667 133.04541866666665 27.229183999999997C131.77838933333334 26.862080000000002 128.66935466666666 26.410837333333333 127.85390933333333 26.475690666666665C127.69962666666666 26.487978666666667 126.95893333333332 26.566997333333333 126.208 26.651306666666667M100.67746133333334 75.14914133333333C100.26376533333332 75.367424 99.69493333333332 75.87328 99.41333333333333 76.273152C98.95714133333333 76.920832 98.90133333333333 77.13638399999999 98.90133333333333 78.25066666666666C98.90133333333333 79.36494933333333 98.95714133333333 79.58050133333333 99.41333333333333 80.22818133333332C99.69493333333332 80.62805333333333 100.26376533333332 81.13390933333334 100.67746133333334 81.352192L101.42976 81.74933333333333 117.84533333333333 81.74933333333333L134.26090666666664 81.74933333333333 135.01320533333333 81.352192C135.42690133333335 81.13390933333334 135.99573333333333 80.62805333333333 136.27733333333333 80.22818133333332C136.73352533333332 79.58050133333333 136.78933333333333 79.36494933333333 136.78933333333333 78.25066666666666C136.78933333333333 77.13638399999999 136.73352533333332 76.920832 136.27733333333333 76.273152C135.99573333333333 75.87328 135.42690133333335 75.367424 135.01320533333333 75.14914133333333L134.26090666666664 74.752 117.84533333333333 74.752L101.42976 74.752 100.67746133333334 75.14914133333333M101.14133333333334 106.06404266666667C100.36087466666666 106.34222933333334 99.44678400000001 107.181056 99.078656 107.95690666666665C98.69346133333333 108.76842666666667 98.745344 110.04006399999999 99.2 110.92992C99.728896 111.96535466666667 100.58308266666667 112.59972266666666 101.73457066666667 112.81254399999999C102.36330666666666 112.92876799999999 111.49431466666667 112.97228799999999 128.86647466666668 112.94190933333333L155.05066666666667 112.896 155.86508800000001 112.41728C156.313088 112.15394133333334 156.87202133333332 111.64757333333333 157.10737066666667 111.29224533333333C157.63336533333333 110.49728 157.81717333333333 109.17205333333332 157.52430933333332 108.28509866666666C157.21113599999998 107.33602133333333 156.05435733333331 106.25450666666667 155.093504 106.012672C153.832448 105.69506133333333 102.038016 105.744384 101.14133333333334 106.06404266666667" stroke="none" fill="#ffffff" fill-rule="evenodd"></path>
</svg>