<svg xmlns="http://www.w3.org/2000/svg" width="256" height="256" viewBox="0 0 256 256" version="1.1" id="Flag-Information--Streamline-Ultimate.svg">
	<path d="M10.548053333333334 7.851008C9.059157333333333 8.119125333333333 7.9397546666666665 9.448789333333332 7.7692586666666665 11.151872000000001C7.711402666666666 11.729749333333332 7.686826666666667 64.73386666666667 7.714645333333333 128.93866666666665C7.7617493333333325 237.24509866666665 7.785813333333333 245.711872 8.048127999999998 246.19025066666666C8.772437333333334 247.510528 9.865898666666666 248.18346666666667 11.287040000000001 248.18346666666667C12.604074666666667 248.18346666666667 13.629952 247.60166399999997 14.288725333333332 246.4807253333333L14.762666666666666 245.67466666666667 14.809088000000001 231.15605333333335L14.855338666666666 216.6376106666667 27.523754666666665 212.737536C44.69077333333333 207.45267199999998 46.993407999999995 206.76078933333332 49.664 206.08443733333334C57.168042666666665 204.18423466666667 63.51718399999999 203.313152 71.08266666666667 203.14555733333333C85.514752 202.82606933333332 99.40275199999999 205.62193066666666 112.64750933333333 211.51300266666667C115.96578133333333 212.988928 118.63466666666666 214.40170666666666 124.24533333333333 217.652224C130.89399466666666 221.504 135.48834133333332 223.75714133333332 140.97066666666666 225.85412266666665C150.45034666666666 229.48027733333333 160.78028799999998 231.73444266666664 171.17866666666666 232.445952C174.35648 232.66338133333332 181.67039999999997 232.664064 184.74666666666667 232.44731733333333C190.11566933333333 232.06877866666667 195.37186133333333 231.29821866666666 200.61866666666666 230.12027733333335C203.88113066666665 229.38777599999997 236.83618133333331 220.03933866666665 238.72955733333333 219.3092266666667C242.55470933333334 217.83398400000002 246.00337066666665 214.24947199999997 247.36665599999998 210.33147733333334C248.29149866666668 207.6736853333333 248.23466666666667 213.38948266666665 248.23466666666667 123.05066666666666L248.23466666666667 39.168 247.782912 37.53472C246.95893333333333 34.555221333333336 245.48283733333332 32.10513066666667 243.302912 30.098432C241.25832533333335 28.21632 238.736384 26.90184533333333 236.16716799999998 26.37943466666667C234.30826666666667 26.001408 231.43970133333335 26.031786666666665 229.65316266666667 26.448384C228.85956266666665 26.633386666666667 222.578176 28.39432533333333 215.69450666666665 30.361429333333334C202.74858666666665 34.0608 200.50124799999998 34.666666666666664 197.03466666666665 35.390976C179.39131733333335 39.07771733333333 160.321024 37.477888 143.27466666666666 30.88093866666667C137.91368533333332 28.806144 133.93783466666667 26.84296533333333 127.373824 23.029418666666665C118.76539733333333 18.028032 113.020928 15.374165333333332 105.30133333333333 12.831914666666666C88.63556266666667 7.343616 69.467648 6.289749333333333 52.323157333333334 9.918975999999999C47.42434133333333 10.956117333333333 46.595071999999995 11.19488 27.306666666666665 17.122815999999997L14.933333333333334 20.925610666666667 14.847999999999999 15.625386666666667L14.762666666666666 10.325333333333333 14.288725333333332 9.519274666666666C13.529770666666666 8.228010666666666 12.069887999999999 7.576917333333333 10.548053333333334 7.851008M67.66933333333333 14.949546666666667C67.29386666666667 14.985557333333333 65.98826666666666 15.099050666666667 64.768 15.201621333333334C59.734528 15.625045333333333 54.582442666666665 16.5248 49.23733333333333 17.913685333333333C47.36682666666667 18.399744000000002 21.197312 26.34103466666667 15.402666666666667 28.180991999999996L14.847999999999999 28.35712 14.847999999999999 118.81557333333332C14.847999999999999 196.52744533333333 14.881791999999999 209.2608853333333 15.088298666666667 209.181696C15.550122666666667 209.00437333333332 43.10920533333333 200.55278933333332 44.885333333333335 200.04369066666666C50.865152 198.32968533333332 56.664064 197.20994133333335 63.21817599999999 196.50355199999998C66.54685866666667 196.14464 76.13474133333332 195.999232 79.78666666666666 196.2519893333333C94.19229866666667 197.24919466666668 107.06244266666666 200.7273813333333 119.65969066666666 207.02788266666667C121.00846933333332 207.702528 124.2624 209.49947733333335 126.89066666666666 211.02114133333333C132.519424 214.28002133333334 135.103488 215.65371733333333 138.24 217.05506133333333C158.32302933333332 226.02769066666667 180.23970133333336 227.98830933333332 201.29962666666665 222.696448C205.36507733333332 221.67483733333333 235.62752 212.9626453333333 236.51839999999999 212.557312C238.47662933333334 211.666432 240.16503466666668 209.69898666666666 240.81476266666664 207.55114666666665C241.15473066666667 206.42662399999998 241.15626666666668 206.02709333333334 241.111552 122.88L241.06666666666666 39.33866666666667 240.6656 38.344704C239.780352 36.14993066666666 237.7728 34.24 235.60533333333333 33.530026666666664C234.86378666666664 33.287168 234.13418666666666 33.197568 232.95999999999998 33.20541866666667C231.37058133333332 33.21582933333333 231.078912 33.290581333333336 218.15620266666667 36.99985066666667C210.90594133333335 39.080789333333335 204.05930666666669 41.01444266666666 202.9416106666667 41.296554666666665C198.349312 42.45589333333333 193.02058666666667 43.378858666666666 187.47733333333332 43.974826666666665C184.00511999999998 44.34807466666666 172.781056 44.40439466666667 169.38666666666666 44.065279999999994C156.6493013333333 42.793471999999994 146.37687466666665 40.14779733333334 135.71874133333333 35.39456C132.26973866666665 33.85634133333333 129.09568 32.17834666666666 123.47733333333333 28.922538666666664C120.84906666666667 27.399338666666665 117.75010133333333 25.678677333333333 116.59076266666666 25.098751999999998C105.828352 19.714218666666667 94.44829866666666 16.457557333333334 81.92 15.176703999999999C80.16861866666666 14.997674666666665 69.02237866666667 14.820010666666667 67.66933333333333 14.949546666666667M122.70933333333333 70.16704C120.57207466666665 70.51758933333333 118.37405866666666 72.24149333333334 117.37480533333334 74.35144533333333C116.85495466666666 75.44900266666666 116.82133333333333 75.634176 116.82133333333333 77.39733333333334C116.82133333333333 79.15554133333333 116.85597866666666 79.34788266666666 117.36763733333333 80.42820266666666C118.95108266666666 83.77053866666667 122.51630933333334 85.47532799999999 126.01685333333333 84.56345599999999C130.43319466666665 83.41316266666666 132.77320533333332 78.277632 130.75165866666666 74.17156266666666C129.74557866666666 72.128 127.56087466666666 70.50427733333333 125.32411733333333 70.13802666666666C124.19293866666666 69.95268266666666 124.00401066666666 69.95490133333332 122.70933333333333 70.16704M123.80689066666667 77.33111466666666C123.678208 77.539328 124.06152533333334 77.85233066666666 124.27980799999999 77.71733333333333C124.35473066666665 77.67108266666666 124.416 77.52260266666666 124.416 77.38726399999999C124.416 77.09764266666667 123.976192 77.057024 123.80689066666667 77.33111466666666M111.18933333333332 109.14184533333334C109.89073066666666 109.60128 108.88891733333332 111.08949333333332 108.88635733333332 112.56388266666666C108.88482133333332 113.40936533333334 109.69224533333332 114.82299733333333 110.47185066666667 115.33943466666666L111.16288 115.79733333333333 116.12552533333333 115.88488533333333C120.67908266666667 115.96544 121.15148799999999 116.001792 121.85787733333332 116.32674133333333C122.813952 116.76637866666667 123.68776533333332 117.62414933333332 124.09668266666667 118.52424533333333C124.39296 119.176192 124.40866133333333 120.20701866666666 124.41275733333333 139.09333333333333C124.41565866666667 151.80185600000002 124.48273066666665 159.67658666666665 124.59895466666666 160.91750399999998C125.40501333333333 169.52183466666668 131.83129599999998 176.42564266666665 140.43050666666667 177.92512C142.55018666666666 178.294784 151.81465599999999 178.28471466666664 152.707072 177.911808C154.0608 177.34621866666666 154.79620266666666 176.192512 154.791936 174.64149333333333C154.78835199999997 173.40671999999998 154.31389866666666 172.506112 153.28580266666665 171.783168L152.54766933333332 171.26399999999998 146.97250133333333 171.15869866666668C140.90786133333333 171.04401066666665 140.37026133333333 170.96959999999999 138.343424 169.964032C135.34276266666666 168.47530666666665 132.746752 165.38948266666665 131.89922133333332 162.304C131.73947733333333 161.72202666666666 131.6647253333333 156.28526933333333 131.59082666666666 139.86133333333333L131.493376 118.18666666666667 131.09691733333332 116.99199999999999C130.45213866666668 115.04896 129.60785066666668 113.70154666666667 128.09096533333334 112.19456C126.41757866666666 110.532096 124.59144533333333 109.53728000000001 122.48098133333333 109.13826133333332C120.621056 108.78651733333334 112.185856 108.789248 111.18933333333332 109.14184533333334" stroke="none" fill="#ffffff" fill-rule="evenodd"></path>
</svg>